#N canvas 761 402 475 273 10;
#X obj 90 33 hsl 128 30 0 100 0 0 amptremolo empty amplitude -2 -8
0 10 -262144 -1 -1 6350 1;
#X obj 90 209 hsl 128 30 1 500 0 0 tauxhachoir empty taux -2 -8 0 10
-262144 -1 -1 1247 1;
#X floatatom 223 225 5 0 0 0 - tauxhachoir -, f 5;
#X obj 90 83 hsl 128 30 1 500 0 0 tauxtremolo empty taux -2 -8 0 10
-262144 -1 -1 1247 1;
#X floatatom 224 98 5 0 0 0 - tauxtremolo -, f 5;
#X obj 283 122 hsl 128 30 0 -1 0 0 propsec empty mélange -2 -8 0 10
-262144 -1 -1 8000 1;
#X obj 359 61 tgl 15 0 ontremolo empty Tremolo 17 7 0 10 -262144 -1
-1 1 1;
#X obj 357 187 tgl 15 0 onhachoir empty Hachoir 17 7 0 10 -262144 -1
-1 1 1;
#X floatatom 224 49 5 0 0 0 - amptremolo -, f 5;
#X floatatom 292 61 5 0 0 0 - argtremolo -, f 5;
#X floatatom 418 137 5 0 0 0 - tauxfx -, f 5;
#X obj 299 187 tgl 15 0 empty arghachoir empty 17 7 0 10 -262144 -1
-1 1 1;
#N canvas 257 129 778 324 logique 1;
#X obj 579 81 *~;
#X obj 578 140 *~;
#X obj 569 192 *~;
#X obj 441 195 + 1;
#X obj 431 94 *~;
#X obj 434 28 soundinput;
#X obj 426 236 soundoutput;
#X obj 488 144 * -1;
#X obj 487 169 s tauxfx;
#X obj 59 78 random;
#X obj 59 55 metro;
#X obj 60 173 pack 0 50;
#X obj 60 195 line~;
#X obj 59 129 *, f 4;
#X obj 59 32 loadbang;
#X obj 60 151 + 1;
#X obj 112 78 / 2;
#X obj 60 104 -;
#X obj 94 104 / 100;
#X text 58 9 math tremolo;
#X obj 234 56 metro;
#X obj 234 214 line~;
#X obj 234 192 pack 0 50;
#X obj 233 148 *;
#X obj 234 30 loadbang;
#X text 234 8 math hachoir;
#X obj 233 80 random 100;
#X obj 233 103 -;
#X obj 233 126 clip 0 1;
#X obj 299 30 r tauxhachoir;
#X obj 311 81 r seuilhachoir;
#X obj 300 129 r onhachoir;
#X obj 96 128 r ontremolo;
#X obj 93 151 s argtremolo;
#X obj 261 170 s arghachoir;
#X obj 60 216 s~ facteurtremolo;
#X obj 234 237 s~ facteurhachoir;
#X obj 597 55 r~ facteurtremolo;
#X obj 595 113 r~ facteurhachoir;
#X obj 487 105 r propsec;
#X text 431 8 math mélangeur;
#X obj 124 32 r tauxtremolo;
#X obj 104 56 r amptremolo;
#X connect 0 0 1 0;
#X connect 1 0 2 0;
#X connect 2 0 6 1;
#X connect 2 0 6 0;
#X connect 3 0 4 1;
#X connect 4 0 6 0;
#X connect 4 0 6 1;
#X connect 5 0 4 0;
#X connect 5 0 0 0;
#X connect 5 1 4 0;
#X connect 5 1 0 0;
#X connect 7 0 8 0;
#X connect 9 0 17 0;
#X connect 10 0 9 0;
#X connect 11 0 12 0;
#X connect 12 0 35 0;
#X connect 13 0 15 0;
#X connect 14 0 10 0;
#X connect 15 0 11 0;
#X connect 15 0 33 0;
#X connect 16 0 17 1;
#X connect 17 0 18 0;
#X connect 18 0 13 0;
#X connect 20 0 26 0;
#X connect 21 0 36 0;
#X connect 22 0 21 0;
#X connect 23 0 22 0;
#X connect 23 0 34 0;
#X connect 24 0 20 0;
#X connect 26 0 27 0;
#X connect 27 0 28 0;
#X connect 28 0 23 0;
#X connect 29 0 20 1;
#X connect 30 0 27 1;
#X connect 31 0 23 1;
#X connect 32 0 13 1;
#X connect 37 0 0 1;
#X connect 38 0 1 1;
#X connect 39 0 3 0;
#X connect 39 0 2 1;
#X connect 39 0 7 0;
#X connect 41 0 10 1;
#X connect 42 0 9 1;
#X connect 42 0 16 0;
#X restore 86 124 pd logique;
#X obj 89 160 hsl 128 30 0 100 0 0 seuilhachoir empty seuil -2 -8 0
10 -262144 -1 -1 6350 1;
#X floatatom 222 176 5 0 0 0 - seuilhachoir -, f 5;
#X obj 19 209 loadbang;
#X msg 19 230 50;
#X connect 15 0 16 0;
#X connect 16 0 0 0;
#X connect 16 0 3 0;
#X connect 16 0 13 0;
#X connect 16 0 1 0;
