#N canvas 1029 23 420 206 10;
#X obj 26 34 hsl 128 15 0 100 0 0 amptrem empty amplitude -2 -8 0 10
-262144 -1 -1 0 1;
#X obj 23 155 hsl 128 15 10 200 0 0 tauxint empty taux -2 -8 0 10 -262144
-1 -1 700 1;
#X floatatom 157 155 5 0 0 0 - tauxint -, f 5;
#X obj 26 64 hsl 128 15 0 200 0 0 tauxtrem empty taux -2 -8 0 10 -262144
-1 -1 0 1;
#X floatatom 160 64 5 0 0 0 - tauxtrem -, f 5;
#X obj 214 94 hsl 128 15 0 -1 0 0 propdry empty mélange -2 -8 0 10
-262144 -1 -1 0 1;
#X obj 281 49 tgl 15 0 tremon empty Tremolo 17 7 0 10 -262144 -1 -1
1 1;
#X obj 280 132 tgl 15 0 inton empty Hachoir 17 7 0 10 -262144 -1 -1
1 1;
#X floatatom 160 35 5 0 0 0 - amptrem -, f 5;
#X floatatom 214 49 5 0 0 0 - argtrem -, f 5;
#X floatatom 349 94 5 0 0 0 - tauxfx -, f 5;
#X obj 222 132 tgl 15 0 empty argint empty 17 7 0 10 -262144 -1 -1
1 1;
#N canvas 382 307 1023 598 logique 1;
#X obj 525 60 *~;
#X obj 525 117 *~;
#X obj 516 191 *~;
#X obj 388 194 + 1;
#X obj 378 93 *~;
#X obj 381 27 soundinput;
#X obj 373 235 soundoutput;
#X obj 434 104 r propdry;
#X obj 435 143 * -1;
#X obj 434 168 s tauxfx;
#X obj 542 91 r~ signalint;
#X obj 543 36 r~ signaltrem;
#X text 378 7 math mixer;
#X obj 59 78 random;
#X obj 59 55 metro;
#X obj 60 173 pack 0 50;
#X obj 60 195 line~;
#X obj 59 129 *, f 4;
#X obj 124 32 r tauxtrem;
#X obj 59 32 loadbang;
#X obj 104 56 r amptrem;
#X obj 96 128 r tremon;
#X obj 93 151 s argtrem;
#X obj 60 151 + 1;
#X obj 112 78 / 2;
#X obj 60 104 -;
#X obj 94 104 / 100;
#X obj 60 216 s~ signaltrem;
#X text 58 9 math tremolo;
#X obj 215 55 metro;
#X obj 215 213 line~;
#X obj 215 191 pack 0 50;
#X obj 214 147 *;
#X obj 281 128 r inton;
#X obj 215 29 loadbang;
#X obj 280 29 r tauxint;
#X obj 215 236 s~ signalint;
#X obj 242 169 s argint;
#X text 215 7 math hachoir;
#X obj 292 80 r seuilint;
#X obj 214 79 random 100;
#X obj 214 102 -;
#X obj 214 125 clip 0 1;
#X connect 0 0 1 0;
#X connect 1 0 2 0;
#X connect 2 0 6 1;
#X connect 2 0 6 0;
#X connect 3 0 4 1;
#X connect 4 0 6 0;
#X connect 4 0 6 1;
#X connect 5 1 4 0;
#X connect 5 1 0 0;
#X connect 7 0 3 0;
#X connect 7 0 2 1;
#X connect 7 0 8 0;
#X connect 8 0 9 0;
#X connect 10 0 1 1;
#X connect 11 0 0 1;
#X connect 13 0 25 0;
#X connect 14 0 13 0;
#X connect 15 0 16 0;
#X connect 16 0 27 0;
#X connect 17 0 23 0;
#X connect 18 0 14 1;
#X connect 19 0 14 0;
#X connect 20 0 13 1;
#X connect 20 0 24 0;
#X connect 21 0 17 1;
#X connect 23 0 22 0;
#X connect 23 0 15 0;
#X connect 24 0 25 1;
#X connect 25 0 26 0;
#X connect 26 0 17 0;
#X connect 29 0 40 0;
#X connect 30 0 36 0;
#X connect 31 0 30 0;
#X connect 32 0 37 0;
#X connect 32 0 31 0;
#X connect 33 0 32 1;
#X connect 34 0 29 0;
#X connect 35 0 29 1;
#X connect 39 0 41 1;
#X connect 40 0 41 0;
#X connect 41 0 42 0;
#X connect 42 0 32 0;
#X restore 78 92 pd logique;
#X obj 23 122 hsl 128 15 0 100 0 0 seuilint empty seuil -2 -8 0 10
-262144 -1 -1 4400 1;
#X floatatom 159 123 5 0 0 0 - seuilint -, f 5;
